<?xml version="1.0" standalone="no"?>
<!DOCTYPE svg PUBLIC "-//W3C//DTD SVG 20010904//EN"
 "http://www.w3.org/TR/2001/REC-SVG-20010904/DTD/svg10.dtd">
<svg version="1.0" xmlns="http://www.w3.org/2000/svg"
 width="835.000000pt" height="996.000000pt" viewBox="0 0 835.000000 996.000000"
 preserveAspectRatio="xMidYMid meet">

<g transform="translate(0.000000,996.000000) scale(0.100000,-0.100000)"
fill="#000000" stroke="none">
<path d="M3860 9950 c-556 -48 -1057 -186 -1537 -425 -758 -377 -1379 -969
-1794 -1710 -470 -842 -631 -1831 -453 -2792 232 -1257 1047 -2352 2189 -2939
269 -139 517 -236 785 -310 84 -23 131 -41 142 -55 26 -30 253 -411 357 -599
51 -91 185 -352 298 -580 113 -228 222 -439 241 -468 60 -92 103 -93 163 -5
19 26 124 230 236 453 228 457 310 608 525 967 l151 251 85 22 c333 83 760
265 1081 459 1199 727 1955 2001 2009 3386 26 644 -79 1233 -319 1802 -426
1006 -1223 1803 -2230 2228 -361 153 -784 261 -1194 305 -133 15 -604 21 -735
10z m770 -275 c917 -114 1727 -516 2358 -1170 620 -642 997 -1465 1083 -2360
15 -165 16 -553 0 -710 -89 -901 -462 -1717 -1075 -2353 -475 -493 -1050 -843
-1706 -1041 -592 -179 -1272 -210 -1890 -85 -1453 292 -2630 1400 -3005 2829
-319 1211 -51 2476 731 3455 200 251 529 559 794 746 545 384 1211 633 1850
693 63 6 131 13 150 15 82 10 592 -4 710 -19z"/>
<path d="M4005 9354 c-232 -14 -493 -53 -694 -103 -1477 -370 -2563 -1644
-2691 -3156 -13 -154 -13 -456 0 -610 52 -616 270 -1219 627 -1733 272 -392
629 -731 1045 -992 127 -80 480 -260 510 -260 11 0 70 50 142 123 244 243 400
543 492 942 13 58 54 312 54 338 0 4 -58 7 -130 7 l-130 0 -67 -67 c-130 -129
-358 -298 -554 -412 -357 -207 -630 -224 -815 -49 -83 78 -109 134 -109 233 0
72 3 86 35 145 21 40 67 97 118 149 l84 85 -28 20 c-67 46 -161 153 -194 219
-28 58 -33 79 -34 141 -2 216 202 367 499 369 124 1 198 -18 330 -82 147 -71
471 -292 660 -449 l50 -42 143 0 144 0 -7 48 c-4 26 -9 50 -11 53 -2 3 -40 27
-84 53 -357 207 -636 508 -771 831 -67 159 -90 275 -96 470 -8 256 29 465 133
766 96 278 182 453 323 662 122 182 118 174 104 188 -7 7 -39 15 -71 17 -102
7 -184 -53 -286 -210 -67 -104 -81 -132 -176 -349 -91 -209 -163 -323 -268
-428 -97 -97 -170 -136 -258 -136 -51 0 -66 4 -98 29 -89 67 -118 233 -77 432
75 365 356 940 569 1166 149 157 291 217 436 184 77 -18 140 -49 302 -147 127
-77 328 -179 351 -179 8 0 35 12 60 26 24 15 58 30 74 33 l29 6 -26 55 c-14
30 -39 77 -56 103 -17 26 -29 50 -26 52 7 8 220 -70 293 -107 39 -20 81 -48
94 -62 14 -14 28 -26 33 -26 15 0 8 80 -13 145 -12 36 -20 67 -17 70 6 6 205
-28 285 -49 91 -24 229 -74 295 -107 32 -16 66 -29 76 -29 11 0 35 25 62 63
65 92 214 242 293 294 112 75 203 105 327 111 193 8 272 -27 605 -263 428
-305 625 -551 629 -785 1 -93 -19 -131 -102 -190 -72 -52 -146 -74 -227 -68
-120 10 -227 86 -417 297 -216 240 -441 381 -608 381 -78 0 -156 -30 -146 -56
3 -9 6 -17 6 -19 0 -2 30 -25 68 -51 83 -60 295 -270 386 -384 358 -449 542
-962 523 -1460 -14 -353 -118 -636 -320 -868 -157 -181 -341 -298 -617 -393
-69 -23 -131 -47 -137 -52 -8 -5 -13 -32 -13 -63 l0 -54 610 0 610 0 0 -450 0
-451 -142 3 -143 3 -5 240 -5 240 -122 3 -123 3 0 -131 0 -131 -127 3 -128 3
0 203 0 202 -212 0 -212 0 5 -52 c57 -578 249 -990 605 -1299 l56 -48 159 78
c235 116 418 230 634 397 130 101 384 344 500 479 459 534 738 1165 835 1885
22 161 30 543 16 715 -71 853 -415 1609 -1005 2214 -587 600 -1320 958 -2156
1055 -128 15 -457 27 -565 20z"/>
<path d="M3585 7520 c-56 -12 -98 -42 -192 -136 -442 -446 -666 -966 -700
-1619 -9 -180 13 -225 108 -225 50 0 374 77 561 134 329 100 591 240 759 406
264 261 306 538 134 880 -83 164 -189 287 -360 415 -172 129 -239 160 -310
145z m462 -875 c101 -30 173 -140 159 -241 -16 -121 -110 -204 -228 -204 -170
1 -278 177 -202 328 30 60 74 98 136 117 57 18 75 18 135 0z"/>
<path d="M3949 6517 c-39 -26 -66 -89 -56 -129 10 -40 53 -85 93 -98 29 -10
43 -9 79 5 61 23 89 70 82 133 -11 97 -116 144 -198 89z"/>
<path d="M4702 6520 c-65 -40 -77 -128 -26 -189 80 -96 224 -38 224 90 0 35
-6 48 -39 80 -33 33 -45 39 -82 39 -26 0 -57 -8 -77 -20z"/>
<path d="M4035 5800 c-186 -29 -326 -101 -382 -197 -82 -140 28 -340 271 -493
132 -83 173 -116 200 -163 84 -145 65 -628 -28 -716 -13 -13 -42 -25 -64 -28
-40 -5 -86 11 -291 102 -211 95 -212 14 -2 -166 116 -98 173 -124 276 -122 53
0 99 8 137 21 l56 20 63 -25 c48 -20 73 -24 107 -19 102 14 249 106 402 252
82 79 102 110 79 125 -20 13 -42 4 -167 -69 -189 -108 -266 -132 -311 -94 -26
21 -47 107 -56 222 -13 173 33 499 75 539 10 9 55 36 101 61 165 88 279 233
287 366 6 85 -29 150 -113 212 -75 56 -217 124 -315 151 -87 25 -239 34 -325
21z"/>
<path d="M2195 4487 c-126 -33 -185 -99 -185 -205 1 -70 32 -127 110 -202 39
-37 70 -74 70 -83 0 -9 -27 -43 -60 -77 -142 -144 -146 -266 -13 -367 77 -59
222 -39 369 49 175 105 432 330 464 407 l14 35 -70 64 c-84 80 -288 243 -367
295 -127 84 -230 110 -332 84z"/>
<path d="M3933 3855 c-13 -31 -23 -66 -23 -79 0 -78 113 -120 325 -121 134 0
143 1 198 28 85 42 113 117 73 195 l-17 32 -267 0 -267 0 -22 -55z"/>
</g>
</svg>
